<svg xmlns="http://www.w3.org/2000/svg" viewBox="0 0 128 128">
  <defs>
    <linearGradient id="g" x1="0" x2="1" y1="0" y2="1">
      <stop offset="0%" stop-color="#d88c57"/>
      <stop offset="100%" stop-color="#7f391a"/>
    </linearGradient>
  </defs>
  <rect x="8" y="8" width="112" height="112" rx="28" fill="#f6f0e4"/>
  <rect x="18" y="18" width="92" height="92" rx="22" fill="url(#g)"/>
  <g fill="#fff8f0">
    <rect x="32" y="38" width="14" height="14" rx="4"/>
    <rect x="50" y="38" width="14" height="14" rx="4" opacity="0.7"/>
    <rect x="68" y="38" width="14" height="14" rx="4"/>
    <rect x="32" y="56" width="14" height="14" rx="4" opacity="0.55"/>
    <rect x="50" y="56" width="14" height="14" rx="4"/>
    <rect x="68" y="56" width="14" height="14" rx="4" opacity="0.7"/>
    <path d="M34 92h44a18 18 0 0 0 18-18V34h-8v40a10 10 0 0 1-10 10H34z"/>
  </g>
</svg>
